<?xml version="1.0" standalone="no"?>
<!DOCTYPE svg PUBLIC "-//W3C//DTD SVG 20010904//EN"
 "http://www.w3.org/TR/2001/REC-SVG-20010904/DTD/svg10.dtd">
<svg version="1.0" xmlns="http://www.w3.org/2000/svg"
 width="183.000000pt" height="183.000000pt" viewBox="0 0 183.000000 183.000000"
 preserveAspectRatio="xMidYMid meet">
<metadata>
Created by potrace 1.14, written by Peter Selinger 2001-2017
</metadata>
<g transform="translate(0.000000,183.000000) scale(0.100000,-0.100000)"
fill="#000000" stroke="none">
<path d="M1222 1518 c-15 -20 -25 -111 -27 -247 -1 -125 -8 -148 -35 -116 -7
8 -17 15 -23 15 -5 0 -15 7 -22 16 -10 15 -13 15 -27 0 -9 -9 -20 -16 -23 -16
-4 0 -24 -13 -45 -30 -44 -35 -56 -73 -66 -206 -4 -49 -12 -100 -17 -114 -6
-14 -11 -33 -13 -44 -1 -10 -8 -22 -15 -27 -8 -5 -10 -9 -6 -9 12 0 -19 -30
-31 -30 -17 0 -20 24 -18 156 2 186 -24 264 -90 277 -32 6 -74 -27 -74 -58 0
-12 -6 -25 -14 -28 -10 -4 -16 7 -21 40 -4 25 -13 53 -21 61 -9 8 -12 22 -9
30 3 9 3 13 -1 9 -4 -4 -15 0 -25 9 -16 14 -19 14 -41 0 -14 -9 -28 -13 -33
-9 -4 5 -5 0 -2 -9 3 -9 -1 -22 -8 -28 -8 -7 -13 -15 -10 -19 2 -4 -3 -20 -11
-35 -7 -16 -14 -44 -14 -62 0 -24 -5 -34 -16 -34 -13 0 -15 11 -11 70 2 38 1
67 -2 65 -2 -3 -10 8 -17 24 -10 25 -16 28 -45 25 -18 -2 -36 -9 -39 -15 -4
-5 -18 -11 -31 -12 -32 -4 -112 -42 -129 -62 -7 -8 -19 -15 -27 -15 -8 0 -12
-4 -8 -10 3 -5 -3 -18 -15 -30 -11 -11 -20 -17 -20 -12 0 4 -11 -15 -25 -42
-14 -27 -25 -56 -25 -63 0 -8 -4 -12 -10 -8 -17 11 -38 -87 -34 -165 4 -103
13 -139 35 -151 11 -5 17 -14 14 -18 -3 -5 2 -12 11 -15 8 -3 13 -10 10 -14
-3 -5 2 -9 10 -9 19 0 29 43 17 70 -32 69 -45 179 -31 255 14 77 73 182 104
182 7 0 13 5 11 11 -3 15 72 55 119 63 l39 7 0 -235 c-1 -189 2 -237 13 -241
7 -3 10 -9 7 -15 -3 -5 1 -10 10 -10 9 0 13 -5 10 -10 -4 -6 -1 -9 7 -8 23 5
45 42 51 88 3 25 8 61 11 80 3 19 10 73 17 120 6 47 14 92 17 100 3 8 7 30 9
49 5 34 37 80 49 68 4 -4 8 -80 9 -169 2 -90 7 -175 13 -189 6 -15 8 -30 5
-33 -4 -3 7 -6 24 -6 36 0 43 14 49 110 2 36 7 72 10 80 3 8 8 29 10 45 3 17
8 37 11 45 8 18 10 27 12 40 2 15 41 12 42 -2 1 -7 2 -65 4 -128 2 -126 12
-200 26 -200 4 0 16 -14 24 -30 14 -27 21 -30 54 -29 28 2 38 7 37 18 -1 9 5
15 12 13 8 -1 11 2 8 7 -3 5 1 14 9 21 8 7 15 19 15 26 0 8 9 14 20 14 11 0
20 -7 20 -15 0 -20 29 -65 55 -87 43 -36 121 -29 132 11 7 25 32 35 32 13 1
-37 14 -81 22 -76 5 3 9 -4 9 -14 0 -27 19 -39 60 -38 26 1 37 7 45 24 5 12
13 22 17 22 5 0 8 9 8 20 0 11 5 20 10 20 6 0 10 7 10 15 0 8 5 15 11 15 6 0
9 -22 7 -57 -3 -54 -2 -58 21 -61 15 -2 21 0 17 7 -4 6 0 11 8 11 9 0 16 9 16
21 0 11 4 18 9 15 8 -5 16 111 13 184 -2 53 3 63 28 48 11 -7 20 -18 20 -25 0
-7 3 -13 8 -13 4 0 13 -15 21 -32 8 -18 17 -35 21 -38 20 -16 59 -78 52 -85
-4 -5 -1 -5 6 -1 7 4 12 1 12 -9 0 -9 4 -14 9 -11 5 3 14 -1 21 -9 14 -17 70
-21 70 -5 0 6 5 10 11 10 17 0 35 23 35 46 0 14 -6 21 -16 19 -28 -4 -68 16
-99 50 -17 19 -31 39 -31 45 0 6 -9 20 -20 32 -11 12 -20 28 -20 35 0 7 -4 13
-10 13 -5 0 -10 9 -10 19 0 11 -4 21 -9 23 -9 3 -14 28 -12 61 0 10 5 15 11
12 5 -3 7 0 4 8 -3 8 1 21 8 28 7 8 14 21 16 29 2 8 8 17 13 18 5 2 9 11 9 20
0 10 9 28 19 41 21 27 30 16 26 -34 -1 -16 3 -33 8 -37 15 -9 47 14 47 34 0
10 5 18 10 18 6 0 10 20 10 45 0 25 -4 45 -10 45 -5 0 -10 11 -10 23 0 16 -6
24 -17 24 -21 0 -63 -41 -63 -62 0 -8 -4 -15 -8 -15 -10 0 -52 -77 -52 -96 0
-8 -4 -14 -10 -14 -5 0 -10 -9 -10 -20 0 -11 -4 -20 -10 -20 -5 0 -10 -6 -10
-14 0 -23 -28 -70 -43 -72 -12 -1 -13 19 -10 114 3 64 9 119 13 122 5 3 11 81
13 174 3 134 1 171 -10 182 -17 16 -44 6 -66 -26 -8 -11 -16 -18 -19 -15 -3 3
-5 -43 -5 -102 0 -91 -5 -236 -18 -483 -1 -25 -7 -55 -13 -67 -7 -12 -12 -35
-12 -51 0 -16 -3 -32 -7 -36 -4 -3 -8 -16 -10 -28 -2 -12 -7 -25 -11 -28 -4
-3 -8 -12 -10 -20 -5 -29 -26 -60 -39 -60 -12 0 -13 72 -10 442 l4 442 -23 23
c-26 26 -37 28 -52 11z m-71 -388 c6 0 8 -4 5 -9 -4 -5 -2 -11 3 -13 6 -1 13
-18 16 -37 3 -19 8 -38 11 -43 3 -5 6 -55 6 -111 -1 -102 -16 -197 -33 -197
-5 0 -9 -7 -9 -15 0 -16 -1 -17 -40 -19 -40 -2 -48 31 -48 188 0 188 23 277
66 261 8 -3 18 -5 23 -5z"/>
<path d="M408 496 l-58 -9 1 -36 c0 -20 4 -45 8 -56 5 -11 4 -25 -1 -32 -17
-22 0 -31 37 -19 19 6 35 14 35 18 0 5 7 8 15 8 8 0 14 3 14 8 -4 22 3 30 21
25 11 -3 20 -11 20 -18 0 -8 9 -10 24 -8 14 3 41 0 61 -7 42 -14 318 -23 310
-10 -3 4 2 11 11 14 22 8 24 8 22 -6 -2 -10 16 -13 67 -13 39 0 77 -4 84 -9
25 -16 61 -13 67 6 7 24 27 23 49 -2 16 -18 20 -19 40 -6 15 10 43 14 81 12
40 -2 64 2 76 11 17 16 54 13 51 -3 -1 -5 36 -9 83 -10 63 0 84 3 84 13 0 17
11 16 38 -3 27 -19 52 -12 52 14 0 10 5 23 10 28 14 14 20 48 10 63 -8 14 -15
15 -245 26 -220 11 -1001 12 -1067 1z"/>
</g>
</svg>
